<svg id="Layer_1" data-name="Layer 1" xmlns="http://www.w3.org/2000/svg" viewBox="0 0 576.08 778.35"><defs><style>.cls-1{fill:#5468ff;}</style></defs><title>logo</title><path class="cls-1" d="M501.14,714a110.74,110.74,0,0,0,10-45.88H288.71a110.59,110.59,0,0,0,10,45.88Z" transform="translate(-111.87 -11)"/><path class="cls-1" d="M306.22,737.77a110.9,110.9,0,0,0,187.4,0Z" transform="translate(-111.87 -11)"/><path class="cls-1" d="M535.06,289.61H264.8V446.79H535.06Zm-31.88,130H294.89V315.69H503.18v104Z" transform="translate(-111.87 -11)"/><path class="cls-1" d="M520.31,237H279.54a14.59,14.59,0,0,0-10.41,4.34,14.75,14.75,0,0,0-4.33,10.51v13.92H535.06V251.89a14.8,14.8,0,0,0-4.34-10.51A14.57,14.57,0,0,0,520.31,237Z" transform="translate(-111.87 -11)"/><path class="cls-1" d="M535.06,470.59H264.8V587.08H535.06Zm-31.88,92.66H293.7v-23.8H503.18ZM293.7,518V494.22H503.18V518Z" transform="translate(-111.87 -11)"/><rect class="cls-1" x="206.82" y="328.5" width="160.68" height="56.34"/><path class="cls-1" d="M399.93,11C240.84,11,111.87,140,111.87,299a286.6,286.6,0,0,0,42.82,151.14h0l.38.61q3,4.78,6.14,9.48L241,583.79V251.89a38.6,38.6,0,0,1,38.54-38.65H520.31a38.6,38.6,0,0,1,38.55,38.65V586.54l83-131.24c.88-1.34,1.73-2.69,2.61-4.06l.67-1.08A286.84,286.84,0,0,0,688,299C688,140,559,11,399.93,11Z" transform="translate(-111.87 -11)"/></svg>